# Blender v3.1.2 OBJ File: 'backpack.blend'
# www.blender.org
mtllib backpack.mtl
o Cube
v 0.663993 1.738357 -1.000000
v 0.838195 -1.000000 -1.000000
v 0.663993 1.738357 1.000000
v 0.838195 -1.000000 1.000000
v -0.952378 1.738357 -1.000000
v -1.000000 -1.000000 -1.000000
v -0.952378 1.738357 1.000000
v -1.000000 -1.000000 1.000000
v 1.000000 0.369179 -1.000000
v -1.000000 0.369179 1.000000
v 1.000000 0.369179 1.000000
v -1.000000 0.369179 -1.000000
v -1.000000 -1.000000 0.000000
v 0.663993 1.738357 0.000000
v -0.952378 1.738357 0.000000
v 0.838195 -1.000000 0.000000
v 1.000000 0.369179 0.000000
v -1.000000 0.369179 0.000000
v 0.000000 -1.000000 -1.000000
v 0.000000 1.738357 1.000000
v 0.000000 -1.000000 1.000000
v 0.000000 1.738357 -1.000000
v 0.000000 0.369179 -1.000000
v 0.000000 0.369179 1.000000
v 0.000000 -1.000000 0.000000
v 0.000000 1.738357 0.000000
vt 0.875000 0.625000
vt 0.750000 0.750000
vt 0.750000 0.625000
vt 0.500000 0.875000
vt 0.625000 1.000000
vt 0.500000 1.000000
vt 0.625000 0.125000
vt 0.500000 0.250000
vt 0.500000 0.125000
vt 0.375000 0.625000
vt 0.250000 0.750000
vt 0.250000 0.625000
vt 0.238500 0.855469
vt 0.125000 0.990403
vt 0.125000 0.855469
vt 0.500000 0.375000
vt 0.625000 0.500000
vt 0.500000 0.500000
vt 0.375000 0.500000
vt 0.375000 0.375000
vt 0.011500 0.990403
vt 0.011500 0.855469
vt 0.375000 0.250000
vt 0.375000 0.125000
vt 0.375000 1.000000
vt 0.375000 0.875000
vt 0.500000 0.000000
vt 0.375000 0.000000
vt 0.125000 0.720535
vt 0.011500 0.720535
vt 0.238500 0.720535
vt 0.250000 0.500000
vt 0.625000 0.000000
vt 0.875000 0.500000
vt 0.750000 0.500000
vt 0.625000 0.625000
vt 0.125000 0.625000
vt 0.125000 0.500000
vt 0.375000 0.750000
vt 0.625000 0.250000
vt 0.125000 0.750000
vt 0.625000 0.750000
vt 0.500000 0.750000
vt 0.875000 0.750000
vt 0.625000 0.875000
vt 0.238500 0.990403
vt 0.625000 0.375000
vn 0.0000 1.0000 0.0000
vn 0.0000 0.0000 1.0000
vn -0.9994 0.0348 0.0000
vn 0.0000 -1.0000 0.0000
vn 0.9712 0.2383 0.0000
vn 0.0000 0.0000 -1.0000
vn 0.9931 -0.1174 0.0000
vn -1.0000 0.0000 0.0000
usemtl Material
s off
f 15/1/1 20/2/1 26/3/1
f 24/4/2 7/5/2 10/6/2
f 15/7/3 12/8/3 18/9/3
f 16/10/4 21/11/4 25/12/4
f 14/13/5 11/14/5 17/15/5
f 23/16/6 1/17/6 9/18/6
f 23/16/6 2/19/6 19/20/6
f 17/15/7 4/21/7 16/22/7
f 18/9/8 6/23/8 13/24/8
f 24/4/2 8/25/2 21/26/2
f 10/27/8 13/24/8 8/28/8
f 9/29/7 16/22/7 2/30/7
f 1/31/5 17/15/5 9/29/5
f 2/19/4 25/12/4 19/32/4
f 7/33/3 18/9/3 10/27/3
f 5/34/1 26/3/1 22/35/1
f 22/35/1 14/36/1 1/17/1
f 19/32/4 13/37/4 6/38/4
f 4/39/2 24/4/2 21/26/2
f 12/8/6 19/20/6 6/23/6
f 5/40/6 23/16/6 12/8/6
f 25/12/4 8/41/4 13/37/4
f 3/42/2 24/4/2 11/43/2
f 26/3/1 3/42/1 14/36/1
f 15/1/1 7/44/1 20/2/1
f 24/4/2 20/45/2 7/5/2
f 15/7/3 5/40/3 12/8/3
f 16/10/4 4/39/4 21/11/4
f 14/13/5 3/46/5 11/14/5
f 23/16/6 22/47/6 1/17/6
f 23/16/6 9/18/6 2/19/6
f 17/15/7 11/14/7 4/21/7
f 18/9/8 12/8/8 6/23/8
f 24/4/2 10/6/2 8/25/2
f 10/27/8 18/9/8 13/24/8
f 9/29/7 17/15/7 16/22/7
f 1/31/5 14/13/5 17/15/5
f 2/19/4 16/10/4 25/12/4
f 7/33/3 15/7/3 18/9/3
f 5/34/1 15/1/1 26/3/1
f 22/35/1 26/3/1 14/36/1
f 19/32/4 25/12/4 13/37/4
f 4/39/2 11/43/2 24/4/2
f 12/8/6 23/16/6 19/20/6
f 5/40/6 22/47/6 23/16/6
f 25/12/4 21/11/4 8/41/4
f 3/42/2 20/45/2 24/4/2
f 26/3/1 20/2/1 3/42/1
