# Blender v3.1.2 OBJ File: 'thunderbolt.blend'
# www.blender.org
mtllib thunderbolt.mtl
o Cube
v 0.169941 -0.246601 -1.493977
v -0.032873 -0.445215 -1.493977
v 0.169941 -0.246601 -0.976865
v -0.032873 -0.445215 -0.976865
v -0.028673 -0.043787 -1.493977
v -0.231487 -0.242401 -1.493977
v -0.028673 -0.043787 -0.976865
v -0.231487 -0.242401 -0.976865
vt 0.875000 0.500000
vt 0.625000 0.750000
vt 0.625000 0.500000
vt 0.375000 1.000000
vt 0.375000 0.750000
vt 0.625000 0.000000
vt 0.375000 0.250000
vt 0.375000 0.000000
vt 0.375000 0.500000
vt 0.125000 0.750000
vt 0.125000 0.500000
vt 0.625000 0.250000
vt 0.875000 0.750000
vt 0.625000 1.000000
vn 0.7145 0.6997 0.0000
vn -0.0000 0.0000 1.0000
vn -0.6997 0.7145 0.0000
vn -0.7145 -0.6997 0.0000
vn 0.6997 -0.7145 0.0000
vn 0.0000 0.0000 -1.0000
usemtl Material
s off
f 5/1/1 3/2/1 1/3/1
f 3/2/2 8/4/2 4/5/2
f 7/6/3 6/7/3 8/8/3
f 2/9/4 8/10/4 6/11/4
f 1/3/5 4/5/5 2/9/5
f 5/12/6 2/9/6 6/7/6
f 5/1/1 7/13/1 3/2/1
f 3/2/2 7/14/2 8/4/2
f 7/6/3 5/12/3 6/7/3
f 2/9/4 4/5/4 8/10/4
f 1/3/5 3/2/5 4/5/5
f 5/12/6 1/3/6 2/9/6
o Cube.001
v 0.234253 -0.247274 -1.071915
v -0.033546 -0.509527 -1.071915
v 0.234253 -0.247274 0.731495
v -0.033546 -0.509527 0.731495
v -0.028000 0.020525 -1.071915
v -0.295799 -0.241729 -1.071915
v -0.028000 0.020525 0.731495
v -0.295799 -0.241729 0.731495
vt 0.875000 0.500000
vt 0.625000 0.750000
vt 0.625000 0.500000
vt 0.375000 1.000000
vt 0.375000 0.750000
vt 0.625000 0.000000
vt 0.375000 0.250000
vt 0.375000 0.000000
vt 0.375000 0.500000
vt 0.125000 0.750000
vt 0.125000 0.500000
vt 0.625000 0.250000
vt 0.875000 0.750000
vt 0.625000 1.000000
vn 0.7145 0.6997 0.0000
vn 0.0000 0.0000 1.0000
vn -0.6997 0.7145 0.0000
vn -0.7145 -0.6997 0.0000
vn 0.6997 -0.7145 0.0000
vn -0.0000 0.0000 -1.0000
usemtl Material.001
s off
f 13/15/7 11/16/7 9/17/7
f 11/16/8 16/18/8 12/19/8
f 15/20/9 14/21/9 16/22/9
f 10/23/10 16/24/10 14/25/10
f 9/17/11 12/19/11 10/23/11
f 13/26/12 10/23/12 14/21/12
f 13/15/7 15/27/7 11/16/7
f 11/16/8 15/28/8 16/18/8
f 15/20/9 13/26/9 14/21/9
f 10/23/10 12/19/10 16/24/10
f 9/17/11 11/16/11 12/19/11
f 13/26/12 9/17/12 10/23/12
o Cube.002
v 0.322135 -0.248194 -0.436059
v -0.034465 -0.597410 -0.436059
v 0.322135 -0.248194 0.055154
v -0.034465 -0.597410 0.055154
v -0.027081 0.108407 -0.436059
v -0.383681 -0.240809 -0.436059
v -0.027081 0.108407 0.055154
v -0.383681 -0.240809 0.055154
vt 0.875000 0.500000
vt 0.625000 0.750000
vt 0.625000 0.500000
vt 0.375000 1.000000
vt 0.375000 0.750000
vt 0.625000 0.000000
vt 0.375000 0.250000
vt 0.375000 0.000000
vt 0.375000 0.500000
vt 0.125000 0.750000
vt 0.125000 0.500000
vt 0.625000 0.250000
vt 0.875000 0.750000
vt 0.625000 1.000000
vn 0.7145 0.6997 0.0000
vn 0.0000 0.0000 1.0000
vn -0.6997 0.7145 0.0000
vn -0.7145 -0.6997 0.0000
vn 0.6997 -0.7145 0.0000
vn 0.0000 0.0000 -1.0000
usemtl Material.002
s off
f 21/29/13 19/30/13 17/31/13
f 19/30/14 24/32/14 20/33/14
f 23/34/15 22/35/15 24/36/15
f 18/37/16 24/38/16 22/39/16
f 17/31/17 20/33/17 18/37/17
f 21/40/18 18/37/18 22/35/18
f 21/29/13 23/41/13 19/30/13
f 19/30/14 23/42/14 24/32/14
f 23/34/15 21/40/15 22/35/15
f 18/37/16 20/33/16 24/38/16
f 17/31/17 19/30/17 20/33/17
f 21/40/18 17/31/18 18/37/18
o Cube.003_Cube.004
v 0.322135 -0.248194 0.720130
v -0.034465 -0.597410 0.720130
v 0.328371 -0.248194 1.537972
v -0.028229 -0.597410 1.537972
v -0.027081 0.108407 0.720130
v -0.383681 -0.240809 0.720130
v -0.020845 0.108407 1.537972
v -0.377445 -0.240809 1.537972
vt 0.625000 0.500000
vt 0.875000 0.750000
vt 0.625000 0.750000
vt 0.375000 1.000000
vt 0.375000 0.750000
vt 0.375000 0.000000
vt 0.625000 0.250000
vt 0.375000 0.250000
vt 0.375000 0.500000
vt 0.125000 0.750000
vt 0.125000 0.500000
vt 0.875000 0.500000
vt 0.625000 1.000000
vt 0.625000 0.000000
vn 0.7145 0.6997 -0.0054
vn 0.0000 0.0000 1.0000
vn -0.6997 0.7145 0.0053
vn -0.7145 -0.6997 0.0054
vn 0.6997 -0.7145 -0.0053
vn 0.0000 0.0000 -1.0000
usemtl Material.004
s off
f 25/43/19 31/44/19 27/45/19
f 27/45/20 32/46/20 28/47/20
f 32/48/21 29/49/21 30/50/21
f 26/51/22 32/52/22 30/53/22
f 25/43/23 28/47/23 26/51/23
f 29/49/24 26/51/24 30/50/24
f 25/43/19 29/54/19 31/44/19
f 27/45/20 31/55/20 32/46/20
f 32/48/21 31/56/21 29/49/21
f 26/51/22 28/47/22 32/52/22
f 25/43/23 27/45/23 28/47/23
f 29/49/24 25/43/24 26/51/24
o Cube.004_Cube.005
v 0.383909 -0.407868 -1.035459
v 0.383909 -0.663860 -1.035459
v 0.391159 -0.405026 1.514068
v 0.391159 -1.030165 1.514068
v -0.445455 -0.407868 -1.035459
v -0.445455 -0.663860 -1.035459
v -0.438205 -0.405026 1.514068
v -0.438205 -1.030165 1.514068
v -0.030773 -0.773590 -1.035459
v -0.023523 -0.405026 1.514068
v -0.023523 -1.139895 1.514068
v -0.030773 -0.407868 -1.035459
v -0.439284 -1.030588 1.134530
v 0.390080 -0.405449 1.134530
v -0.439284 -0.405449 1.134530
v 0.390080 -1.030588 1.134530
v -0.024602 -1.140318 1.134530
v -0.024602 -0.405449 1.134530
v -0.439379 -0.405486 1.101068
v 0.389985 -0.661478 1.101068
v -0.439379 -0.661478 1.101068
v 0.389985 -0.405486 1.101068
v -0.024697 -0.771208 1.101068
v -0.024697 -0.405486 1.101068
v -0.441818 -0.406442 0.243384
v 0.387546 -0.662434 0.243384
v -0.441818 -0.662434 0.243384
v 0.387546 -0.406442 0.243384
v -0.027136 -1.427420 0.243384
v -0.027136 -0.406442 0.243384
v -0.442933 -0.406879 -0.148710
v 0.386431 -0.662871 -0.148710
v -0.442933 -0.662871 -0.148710
v 0.386431 -0.406879 -0.148710
v -0.028251 -1.427858 -0.148710
v -0.028251 -0.406879 -0.148710
v -0.443062 -0.406930 -0.194095
v 0.386302 -0.662922 -0.194095
v -0.443062 -0.662922 -0.194095
v 0.386302 -0.406930 -0.194095
v -0.028380 -0.772652 -0.194095
v -0.028380 -0.406930 -0.194095
v -0.441603 -0.662350 0.319234
v 0.387762 -0.406358 0.319234
v -0.026920 -0.772080 0.319234
v -0.026920 -0.406358 0.319234
v -0.441603 -0.406358 0.319234
v 0.387762 -0.662350 0.319234
v 0.248108 -1.068018 1.514068
v 0.240858 -0.407868 -1.035459
v 0.240858 -0.701713 -1.035459
v 0.248108 -0.405026 1.514068
v 0.247029 -0.405449 1.134530
v 0.247029 -1.068441 1.134530
v 0.246934 -0.699331 1.101068
v 0.246934 -0.405486 1.101068
v 0.244495 -0.406442 0.243384
v 0.244495 -0.700287 0.243384
v 0.243380 -0.700724 -0.148710
v 0.243380 -0.406879 -0.148710
v 0.243251 -0.406930 -0.194095
v 0.243251 -0.700775 -0.194095
v 0.244710 -0.406358 0.319234
v 0.244710 -0.700203 0.319234
v -0.238114 -0.718725 -1.035459
v -0.230864 -0.405026 1.514068
v -0.230864 -1.085030 1.514068
v -0.238114 -0.407868 -1.035459
v -0.231943 -1.085453 1.134530
v -0.231943 -0.405449 1.134530
v -0.232038 -0.405486 1.101068
v -0.232038 -0.716343 1.101068
v -0.234477 -0.717299 0.243384
v -0.234477 -0.406442 0.243384
v -0.235592 -0.406879 -0.148710
v -0.235592 -0.717736 -0.148710
v -0.235721 -0.717787 -0.194095
v -0.235721 -0.406930 -0.194095
v -0.234262 -0.717215 0.319234
v -0.234262 -0.406358 0.319234
v 0.203509 -0.711596 -1.035459
v 0.210759 -0.405026 1.514068
v 0.209680 -1.078324 1.134530
v 0.209584 -0.709214 1.101068
v 0.207145 -1.365427 0.243384
v 0.206030 -1.365864 -0.148710
v 0.205901 -0.710658 -0.194095
v 0.207361 -0.710086 0.319234
v 0.210759 -1.077901 1.514068
v 0.203509 -0.407868 -1.035459
v 0.209680 -0.405449 1.134530
v 0.209584 -0.405486 1.101068
v 0.207145 -0.406442 0.243384
v 0.206030 -0.406879 -0.148710
v 0.205901 -0.406930 -0.194095
v 0.207361 -0.406358 0.319234
v -0.202202 -1.092614 1.514068
v -0.209452 -0.407868 -1.035459
v -0.203281 -0.405449 1.134530
v -0.203376 -0.405486 1.101068
v -0.205815 -0.406442 0.243384
v -0.206930 -0.406879 -0.148710
v -0.207059 -0.406930 -0.194095
v -0.205600 -0.406358 0.319234
v -0.209452 -0.726309 -1.035459
v -0.202202 -0.405026 1.514068
v -0.203281 -1.093037 1.134530
v -0.203376 -0.723927 1.101068
v -0.205815 -0.724883 0.243384
v -0.206930 -0.725321 -0.148710
v -0.207059 -0.725371 -0.194095
v -0.205600 -0.724799 0.319234
vt 0.812500 0.712783
vt 0.875000 0.750000
vt 0.812500 0.750000
vt 0.625000 0.937500
vt 0.375000 1.000000
vt 0.375000 0.937500
vt 0.375000 0.167498
vt 0.625000 0.250000
vt 0.375000 0.250000
vt 0.375000 0.712783
vt 0.331879 0.750000
vt 0.331879 0.712783
vt 0.625000 0.712784
vt 0.375000 0.750000
vt 0.625000 0.456879
vt 0.375000 0.500000
vt 0.375000 0.456879
vt 0.375000 0.321140
vt 0.625000 0.375000
vt 0.375000 0.375000
vt 0.250000 0.712783
vt 0.196140 0.750000
vt 0.196140 0.712784
vt 0.375000 0.804379
vt 0.625000 0.875000
vt 0.375000 0.875000
vt 0.679379 0.712783
vt 0.750000 0.750000
vt 0.679379 0.750000
vt 0.679379 0.709502
vt 0.750000 0.712783
vt 0.250000 0.709502
vt 0.196140 0.709502
vt 0.375000 0.709502
vt 0.331879 0.709502
vt 0.375000 0.000000
vt 0.625000 0.037216
vt 0.375000 0.037216
vt 0.812500 0.709502
vt 0.875000 0.712783
vt 0.812500 0.632838
vt 0.875000 0.709502
vt 0.375000 0.632838
vt 0.331879 0.632838
vt 0.625000 0.632838
vt 0.250000 0.632838
vt 0.196140 0.632838
vt 0.679379 0.632838
vt 0.750000 0.709502
vt 0.375000 0.040498
vt 0.679379 0.586952
vt 0.750000 0.625400
vt 0.679379 0.625400
vt 0.196140 0.586952
vt 0.250000 0.625400
vt 0.196140 0.625400
vt 0.625000 0.586952
vt 0.375000 0.625400
vt 0.375000 0.586952
vt 0.331879 0.625400
vt 0.331879 0.586952
vt 0.812500 0.586952
vt 0.875000 0.625400
vt 0.812500 0.625400
vt 0.375000 0.117162
vt 0.625000 0.124600
vt 0.375000 0.124600
vt 0.812500 0.582502
vt 0.875000 0.586952
vt 0.375000 0.582502
vt 0.331879 0.582502
vt 0.625000 0.582502
vt 0.250000 0.582502
vt 0.196140 0.582502
vt 0.679379 0.582502
vt 0.750000 0.586952
vt 0.625000 0.163048
vt 0.375000 0.163048
vt 0.679379 0.500000
vt 0.750000 0.582502
vt 0.250000 0.500000
vt 0.196140 0.500000
vt 0.625000 0.500000
vt 0.331879 0.500000
vt 0.812500 0.500000
vt 0.875000 0.582502
vt 0.625000 0.167498
vt 0.625000 0.117162
vt 0.750000 0.632838
vt 0.625000 0.625400
vt 0.875000 0.632838
vt 0.320621 0.632838
vt 0.320621 0.625400
vt 0.668121 0.632838
vt 0.320621 0.582502
vt 0.320621 0.500000
vt 0.668121 0.582502
vt 0.668121 0.586952
vt 0.320621 0.586952
vt 0.668121 0.625400
vt 0.668121 0.709502
vt 0.625000 0.709502
vt 0.320621 0.709502
vt 0.320621 0.712784
vt 0.668121 0.712783
vt 0.668121 0.750000
vt 0.625000 0.750000
vt 0.625000 0.793121
vt 0.375000 0.793121
vt 0.625000 0.445621
vt 0.375000 0.445621
vt 0.320621 0.750000
vt 0.803860 0.625400
vt 0.803860 0.632838
vt 0.187500 0.625400
vt 0.125000 0.632838
vt 0.125000 0.625400
vt 0.803860 0.500000
vt 0.803860 0.582502
vt 0.187500 0.500000
vt 0.125000 0.582502
vt 0.125000 0.500000
vt 0.187500 0.582502
vt 0.125000 0.586952
vt 0.803860 0.586952
vt 0.187500 0.586952
vt 0.187500 0.632838
vt 0.125000 0.709502
vt 0.803860 0.709502
vt 0.803860 0.712783
vt 0.187500 0.709502
vt 0.125000 0.712784
vt 0.187500 0.712783
vt 0.125000 0.750000
vt 0.625000 0.312500
vt 0.375000 0.312500
vt 0.625000 0.928860
vt 0.375000 0.928860
vt 0.803860 0.750000
vt 0.250000 0.750000
vt 0.250000 0.586952
vt 0.668121 0.500000
vt 0.625000 0.804379
vt 0.750000 0.500000
vt 0.187500 0.750000
vt 0.625000 0.321140
vt 0.625000 1.000000
vt 0.625000 0.000000
vt 0.625000 0.040498
vt 0.875000 0.500000
vn 0.0000 1.0000 -0.0011
vn -0.0000 0.0000 1.0000
vn -1.0000 0.0000 0.0028
vn 0.2558 -0.9667 0.0004
vn 1.0000 0.0000 -0.0028
vn 0.0000 0.0000 -1.0000
vn -0.2558 -0.9667 0.0018
vn -0.0239 -0.0903 -0.9956
vn 0.0239 -0.0903 -0.9956
vn -0.9691 -0.2465 0.0030
vn 0.2558 -0.9667 0.0003
vn 0.8996 -0.0505 0.4339
vn 0.7750 -0.0435 -0.6305
vn 0.9984 -0.0561 -0.0028
vn 0.0183 -0.0691 -0.9974
vn 0.0304 -0.1149 0.9929
vn -0.2624 -0.0667 -0.9627
vn -0.4115 -0.1047 0.9054
usemtl Material.005
s off
f 102/57/25 39/58/25 98/59/25
f 98/60/26 40/61/26 99/62/26
f 71/63/27 37/64/27 38/65/27
f 48/66/28 81/67/28 86/68/28
f 46/69/29 36/70/29 48/66/29
f 82/71/30 34/72/30 83/73/30
f 137/74/30 44/75/30 41/76/30
f 49/77/31 129/78/31 139/79/31
f 121/80/26 42/81/26 43/82/26
f 123/83/25 42/84/25 114/85/25
f 124/86/25 50/87/25 123/83/25
f 55/88/32 139/79/32 140/89/32
f 52/90/29 46/69/29 48/66/29
f 87/91/33 48/66/33 86/68/33
f 40/92/27 47/93/27 45/94/27
f 103/95/25 47/96/25 102/57/25
f 112/97/25 51/98/25 103/95/25
f 80/99/28 87/91/28 96/100/28
f 76/101/29 52/90/29 80/99/29
f 77/102/31 140/89/31 144/103/31
f 128/104/25 56/105/25 124/86/25
f 47/93/27 53/106/27 45/94/27
f 126/107/25 62/108/25 125/109/25
f 142/110/34 61/111/34 141/112/34
f 66/113/29 58/114/29 64/115/29
f 64/115/28 90/116/28 91/117/28
f 107/118/25 57/119/25 106/120/25
f 75/121/27 57/122/27 59/123/27
f 110/124/25 63/125/25 107/118/25
f 70/126/28 91/117/28 94/127/28
f 72/128/29 64/115/29 70/126/29
f 73/129/31 142/110/31 143/130/31
f 127/131/25 68/132/25 126/107/25
f 59/123/27 63/133/27 65/134/27
f 122/135/25 74/136/25 127/131/25
f 41/137/31 143/130/31 137/138/31
f 33/139/29 70/126/29 34/72/29
f 34/72/28 94/127/28 83/140/28
f 100/141/25 69/142/25 110/124/25
f 65/134/27 69/143/27 71/63/27
f 53/106/27 79/144/27 75/121/27
f 125/109/25 78/145/25 128/104/25
f 141/112/31 77/102/31 144/103/31
f 60/146/29 80/99/29 58/114/29
f 58/114/35 96/100/35 90/116/35
f 106/120/25 79/147/25 112/97/25
f 90/116/36 120/148/36 117/149/36
f 60/146/25 95/150/25 76/101/25
f 83/140/28 119/151/28 113/152/28
f 33/139/25 93/153/25 72/128/25
f 72/128/25 92/154/25 66/113/25
f 119/151/37 91/117/37 118/155/37
f 91/117/38 117/149/38 118/155/38
f 66/113/25 89/156/25 60/146/25
f 76/101/25 88/157/25 54/158/25
f 96/100/28 116/159/28 120/148/28
f 116/159/33 86/68/33 115/160/33
f 54/158/25 85/161/25 46/69/25
f 46/69/25 84/162/25 35/163/25
f 36/70/26 84/164/26 81/165/26
f 122/166/30 83/73/30 113/167/30
f 86/68/28 121/168/28 115/160/28
f 133/169/25 112/97/25 136/170/25
f 105/171/31 75/172/31 59/173/31
f 130/174/25 110/124/25 135/175/25
f 97/176/31 71/177/31 38/178/31
f 109/179/31 65/180/31 71/177/31
f 135/175/25 107/118/25 134/181/25
f 134/181/25 106/120/25 133/169/25
f 108/182/31 59/173/31 65/180/31
f 111/183/31 53/184/31 75/172/31
f 136/170/25 103/95/25 132/185/25
f 132/185/25 102/57/25 131/186/25
f 104/187/32 45/188/32 53/184/32
f 101/189/31 40/190/31 45/188/31
f 38/65/30 100/191/30 97/192/30
f 138/193/26 99/62/26 129/194/26
f 131/186/25 98/59/25 138/195/25
f 115/160/35 43/196/35 49/77/35
f 44/75/30 113/167/30 41/76/30
f 55/88/33 115/160/33 49/77/33
f 120/148/35 55/88/35 77/102/35
f 118/155/28 61/111/28 67/197/28
f 73/129/39 118/155/39 67/197/39
f 113/152/28 73/129/28 41/137/28
f 117/149/40 77/102/40 61/111/40
f 89/156/25 128/104/25 95/150/25
f 82/198/25 127/131/25 93/153/25
f 93/153/25 126/107/25 92/154/25
f 92/154/25 125/109/25 89/156/25
f 95/150/25 124/86/25 88/157/25
f 88/157/25 123/83/25 85/161/25
f 85/161/25 114/85/25 84/162/25
f 81/165/26 114/199/26 121/80/26
f 50/87/25 138/195/25 42/84/25
f 42/81/26 129/194/26 43/82/26
f 56/105/25 131/186/25 50/87/25
f 78/145/25 132/185/25 56/105/25
f 68/132/25 133/169/25 62/108/25
f 74/136/25 134/181/25 68/132/25
f 44/200/25 135/175/25 74/136/25
f 62/108/25 136/170/25 78/145/25
f 141/112/31 111/183/31 105/171/31
f 137/138/31 109/179/31 97/176/31
f 143/130/31 108/182/31 109/179/31
f 142/110/31 105/171/31 108/182/31
f 144/103/31 104/187/31 111/183/31
f 140/89/32 101/189/32 104/187/32
f 139/79/31 99/201/31 101/189/31
f 97/192/30 130/202/30 137/74/30
f 102/57/25 47/96/25 39/58/25
f 98/60/26 39/203/26 40/61/26
f 71/63/27 69/143/27 37/64/27
f 48/66/28 36/70/28 81/67/28
f 46/69/29 35/163/29 36/70/29
f 82/71/30 33/139/30 34/72/30
f 137/74/30 130/202/30 44/75/30
f 49/77/31 43/196/31 129/78/31
f 121/80/26 114/199/26 42/81/26
f 123/83/25 50/87/25 42/84/25
f 124/86/25 56/105/25 50/87/25
f 55/88/32 49/77/32 139/79/32
f 52/90/29 54/158/29 46/69/29
f 87/91/33 52/90/33 48/66/33
f 40/92/27 39/204/27 47/93/27
f 103/95/25 51/98/25 47/96/25
f 112/97/25 79/147/25 51/98/25
f 80/99/28 52/90/28 87/91/28
f 76/101/29 54/158/29 52/90/29
f 77/102/31 55/88/31 140/89/31
f 128/104/25 78/145/25 56/105/25
f 47/93/27 51/205/27 53/106/27
f 126/107/25 68/132/25 62/108/25
f 142/110/34 67/197/34 61/111/34
f 66/113/29 60/146/29 58/114/29
f 64/115/28 58/114/28 90/116/28
f 107/118/25 63/125/25 57/119/25
f 75/121/27 79/144/27 57/122/27
f 110/124/25 69/142/25 63/125/25
f 70/126/28 64/115/28 91/117/28
f 72/128/29 66/113/29 64/115/29
f 73/129/41 67/197/41 142/110/41
f 127/131/25 74/136/25 68/132/25
f 59/123/27 57/122/27 63/133/27
f 122/135/25 44/200/25 74/136/25
f 41/137/31 73/129/31 143/130/31
f 33/139/29 72/128/29 70/126/29
f 34/72/28 70/126/28 94/127/28
f 100/141/25 37/206/25 69/142/25
f 65/134/27 63/133/27 69/143/27
f 53/106/27 51/205/27 79/144/27
f 125/109/25 62/108/25 78/145/25
f 141/112/42 61/111/42 77/102/42
f 60/146/29 76/101/29 80/99/29
f 58/114/28 80/99/28 96/100/28
f 106/120/25 57/119/25 79/147/25
f 90/116/35 96/100/35 120/148/35
f 60/146/25 89/156/25 95/150/25
f 83/140/28 94/127/28 119/151/28
f 33/139/25 82/198/25 93/153/25
f 72/128/25 93/153/25 92/154/25
f 119/151/28 94/127/28 91/117/28
f 91/117/38 90/116/38 117/149/38
f 66/113/25 92/154/25 89/156/25
f 76/101/25 95/150/25 88/157/25
f 96/100/28 87/91/28 116/159/28
f 116/159/33 87/91/33 86/68/33
f 54/158/25 88/157/25 85/161/25
f 46/69/25 85/161/25 84/162/25
f 36/70/26 35/163/26 84/164/26
f 122/166/30 82/71/30 83/73/30
f 86/68/28 81/67/28 121/168/28
f 133/169/25 106/120/25 112/97/25
f 105/171/31 111/183/31 75/172/31
f 130/174/25 100/141/25 110/124/25
f 97/176/31 109/179/31 71/177/31
f 109/179/31 108/182/31 65/180/31
f 135/175/25 110/124/25 107/118/25
f 134/181/25 107/118/25 106/120/25
f 108/182/31 105/171/31 59/173/31
f 111/183/31 104/187/31 53/184/31
f 136/170/25 112/97/25 103/95/25
f 132/185/25 103/95/25 102/57/25
f 104/187/32 101/189/32 45/188/32
f 101/189/31 99/201/31 40/190/31
f 38/65/30 37/64/30 100/191/30
f 138/193/26 98/60/26 99/62/26
f 131/186/25 102/57/25 98/59/25
f 115/160/28 121/168/28 43/196/28
f 44/75/30 122/166/30 113/167/30
f 55/88/33 116/159/33 115/160/33
f 120/148/28 116/159/28 55/88/28
f 118/155/28 117/149/28 61/111/28
f 73/129/39 119/151/39 118/155/39
f 113/152/28 119/151/28 73/129/28
f 117/149/40 120/148/40 77/102/40
f 89/156/25 125/109/25 128/104/25
f 82/198/25 122/135/25 127/131/25
f 93/153/25 127/131/25 126/107/25
f 92/154/25 126/107/25 125/109/25
f 95/150/25 128/104/25 124/86/25
f 88/157/25 124/86/25 123/83/25
f 85/161/25 123/83/25 114/85/25
f 81/165/26 84/164/26 114/199/26
f 50/87/25 131/186/25 138/195/25
f 42/81/26 138/193/26 129/194/26
f 56/105/25 132/185/25 131/186/25
f 78/145/25 136/170/25 132/185/25
f 68/132/25 134/181/25 133/169/25
f 74/136/25 135/175/25 134/181/25
f 44/200/25 130/174/25 135/175/25
f 62/108/25 133/169/25 136/170/25
f 141/112/31 144/103/31 111/183/31
f 137/138/31 143/130/31 109/179/31
f 143/130/31 142/110/31 108/182/31
f 142/110/31 141/112/31 105/171/31
f 144/103/31 140/89/31 104/187/31
f 140/89/32 139/79/32 101/189/32
f 139/79/31 129/78/31 99/201/31
f 97/192/30 100/191/30 130/202/30
o Cube.005_Cube.006
v 0.345891 -0.428142 -0.989228
v 0.345891 -0.524398 -0.948369
v 0.807963 -0.428142 -0.989228
v 0.807963 -0.524398 -0.948369
v 0.345891 -0.387283 -0.892971
v 0.345891 -0.483540 -0.852113
v 0.807963 -0.387283 -0.892971
v 0.807963 -0.483540 -0.852113
vt 0.875000 0.500000
vt 0.625000 0.750000
vt 0.625000 0.500000
vt 0.375000 1.000000
vt 0.375000 0.750000
vt 0.625000 0.000000
vt 0.375000 0.250000
vt 0.375000 0.000000
vt 0.375000 0.500000
vt 0.125000 0.750000
vt 0.125000 0.500000
vt 0.625000 0.250000
vt 0.875000 0.750000
vt 0.625000 1.000000
vn 0.0000 0.9205 -0.3907
vn 1.0000 0.0000 0.0000
vn 0.0000 0.3907 0.9205
vn 0.0000 -0.9205 0.3907
vn 0.0000 -0.3907 -0.9205
vn -1.0000 0.0000 0.0000
usemtl Material.006
s off
f 149/207/43 147/208/43 145/209/43
f 147/208/44 152/210/44 148/211/44
f 151/212/45 150/213/45 152/214/45
f 146/215/46 152/216/46 150/217/46
f 145/209/47 148/211/47 146/215/47
f 149/218/48 146/215/48 150/213/48
f 149/207/43 151/219/43 147/208/43
f 147/208/44 151/220/44 152/210/44
f 151/212/45 149/218/45 150/213/45
f 146/215/46 148/211/46 152/216/46
f 145/209/47 147/208/47 148/211/47
f 149/218/48 145/209/48 146/215/48
o Cube.006_Cube.008
v -0.881136 -0.428142 -0.989228
v -0.881136 -0.524398 -0.948369
v -0.419063 -0.428142 -0.989228
v -0.419063 -0.524398 -0.948369
v -0.881136 -0.387283 -0.892971
v -0.881136 -0.483540 -0.852113
v -0.419063 -0.387283 -0.892971
v -0.419063 -0.483540 -0.852113
vt 0.875000 0.500000
vt 0.625000 0.750000
vt 0.625000 0.500000
vt 0.375000 1.000000
vt 0.375000 0.750000
vt 0.625000 0.000000
vt 0.375000 0.250000
vt 0.375000 0.000000
vt 0.375000 0.500000
vt 0.125000 0.750000
vt 0.125000 0.500000
vt 0.625000 0.250000
vt 0.875000 0.750000
vt 0.625000 1.000000
vn 0.0000 0.9205 -0.3907
vn 1.0000 0.0000 0.0000
vn 0.0000 0.3907 0.9205
vn 0.0000 -0.9205 0.3907
vn 0.0000 -0.3907 -0.9205
vn -1.0000 0.0000 0.0000
usemtl Material.008
s off
f 157/221/49 155/222/49 153/223/49
f 155/222/50 160/224/50 156/225/50
f 159/226/51 158/227/51 160/228/51
f 154/229/52 160/230/52 158/231/52
f 153/223/53 156/225/53 154/229/53
f 157/232/54 154/229/54 158/227/54
f 157/221/49 159/233/49 155/222/49
f 155/222/50 159/234/50 160/224/50
f 159/226/51 157/232/51 158/227/51
f 154/229/52 156/225/52 160/230/52
f 153/223/53 155/222/53 156/225/53
f 157/232/54 153/223/54 154/229/54
o Cube.007_Cube.009
v -0.739817 -0.434211 -1.529811
v -0.771722 -0.509375 -1.529811
v -0.739817 -0.434211 -0.927380
v -0.771722 -0.509375 -0.927380
v -0.814981 -0.402306 -1.529811
v -0.846886 -0.477470 -1.529811
v -0.814981 -0.402306 -0.927380
v -0.846886 -0.477470 -0.927380
vt 0.875000 0.500000
vt 0.625000 0.750000
vt 0.625000 0.500000
vt 0.375000 1.000000
vt 0.375000 0.750000
vt 0.625000 0.000000
vt 0.375000 0.250000
vt 0.375000 0.000000
vt 0.375000 0.500000
vt 0.125000 0.750000
vt 0.125000 0.500000
vt 0.625000 0.250000
vt 0.875000 0.750000
vt 0.625000 1.000000
vn 0.3907 0.9205 0.0000
vn 0.0000 0.0000 1.0000
vn -0.9205 0.3907 0.0000
vn -0.3907 -0.9205 0.0000
vn 0.9205 -0.3907 0.0000
vn -0.0000 0.0000 -1.0000
usemtl Material.009
s off
f 165/235/55 163/236/55 161/237/55
f 163/236/56 168/238/56 164/239/56
f 167/240/57 166/241/57 168/242/57
f 162/243/58 168/244/58 166/245/58
f 161/237/59 164/239/59 162/243/59
f 165/246/60 162/243/60 166/241/60
f 165/235/55 167/247/55 163/236/55
f 163/236/56 167/248/56 168/238/56
f 167/240/57 165/246/57 166/241/57
f 162/243/58 164/239/58 168/244/58
f 161/237/59 163/236/59 164/239/59
f 165/246/60 161/237/60 162/243/60
o Cube.008_Cube.010
v 0.782375 -0.434211 -1.529811
v 0.750470 -0.509375 -1.529811
v 0.782375 -0.434211 -0.927380
v 0.750470 -0.509375 -0.927380
v 0.707212 -0.402306 -1.529811
v 0.675306 -0.477470 -1.529811
v 0.707212 -0.402306 -0.927380
v 0.675306 -0.477470 -0.927380
vt 0.875000 0.500000
vt 0.625000 0.750000
vt 0.625000 0.500000
vt 0.375000 1.000000
vt 0.375000 0.750000
vt 0.625000 0.000000
vt 0.375000 0.250000
vt 0.375000 0.000000
vt 0.375000 0.500000
vt 0.125000 0.750000
vt 0.125000 0.500000
vt 0.625000 0.250000
vt 0.875000 0.750000
vt 0.625000 1.000000
vn 0.3907 0.9205 0.0000
vn 0.0000 0.0000 1.0000
vn -0.9205 0.3907 0.0000
vn -0.3907 -0.9205 0.0000
vn 0.9205 -0.3907 0.0000
vn -0.0000 0.0000 -1.0000
usemtl Material.010
s off
f 173/249/61 171/250/61 169/251/61
f 171/250/62 176/252/62 172/253/62
f 175/254/63 174/255/63 176/256/63
f 170/257/64 176/258/64 174/259/64
f 169/251/65 172/253/65 170/257/65
f 173/260/66 170/257/66 174/255/66
f 173/249/61 175/261/61 171/250/61
f 171/250/62 175/262/62 176/252/62
f 175/254/63 173/260/63 174/255/63
f 170/257/64 172/253/64 176/258/64
f 169/251/65 171/250/65 172/253/65
f 173/260/66 169/251/66 170/257/66
